<svg xmlns="http://www.w3.org/2000/svg" width="642" height="513" viewBox="0 0 642 513">
  <g fill="none" fill-rule="evenodd" transform="translate(-1)">
    <g transform="translate(135)">
      <path fill="#E48E66" fill-rule="nonzero" d="M185.611201,120.765318 C169.831179,115.885118 152.89163,123.558993 146.13935,138.657932 C139.38707,153.752507 144.944951,171.518531 159.094661,180.061064 C173.240013,188.599234 191.52653,185.224998 201.70508,172.199489 C211.88363,159.169616 210.750259,140.587315 199.07217,128.893167 C195.310248,125.126071 190.693937,122.33676 185.611201,120.765318 Z M184.77425,74.311747 C226.839779,73.6176932 263.499995,102.859611 272.21824,144.075043 C280.936484,185.286109 259.271647,226.907498 220.540846,243.350891 C181.810047,259.794286 136.871857,246.450125 113.354392,211.520461 C89.8369286,176.590797 94.3355426,129.870952 124.082192,100.083396 C140.189148,83.9062741 161.967323,74.6609565 184.77425,74.311747 Z"/>
      <path fill="#D18162" d="M185.611201,120.765318 C185.685306,120.79151 185.755052,120.817701 185.824798,120.839527 L185.824798,74.3204765 C185.476068,74.3204765 185.127338,74.3073822 184.77425,74.311747 C136.597232,75.0931033 98.0320781,114.575583 98.3197804,162.827585 C98.6074821,211.075219 137.643421,250.094998 185.824798,250.300158 L185.824798,183.238869 C172.41178,187.490493 157.782565,182.667039 149.51767,171.265354 C141.248416,159.86367 141.196106,144.446077 149.386896,132.987646 C157.577686,121.529214 172.172027,116.609728 185.611201,120.769685 L185.611201,120.765318 Z"/>
      <path fill="#F8EC7D" d="M365.346525,317.968197 L365.547044,359.916969 L365.512171,360.209432 L331.297422,360.619753 L327.012404,338.898932 L301.402563,330.60521 L296.280594,308.089938 L270.448435,299.988281 L266.70831,274.509095 L231.198901,238.950854 L230.762988,238.191324 C242.053114,231.517061 251.721647,222.420156 259.075486,211.551016 L365.346525,317.968197 Z"/>
      <path fill="#63316D" fill-rule="nonzero" d="M255.457415,92.9726214 C238.574534,75.9443013 215.998642,65.7823098 192.07578,64.4378527 C177.930427,26.5180844 142.159472,1.03453238 101.74605,0.0829372738 C61.3326295,-0.868658504 24.4108646,22.9081325 8.50006938,60.1207524 C-7.40636811,97.3377379 0.906478076,140.500012 29.4892416,169.126447 C46.9170125,186.687312 70.325498,197.006447 95.0286429,198.019155 C104.941286,223.45469 125.001967,243.595338 150.376416,253.587091 C175.750867,263.583208 204.13747,262.52685 228.701123,250.671192 L257.253374,279.267072 L260.509637,301.450595 C261.071965,305.270073 263.765901,308.430417 267.445001,309.582807 L287.771588,315.955879 L291.611974,332.835784 C292.396616,336.292957 294.942343,339.082266 298.311944,340.173545 L318.302879,346.642649 L321.445805,362.566594 C322.374298,367.276556 326.502387,370.672616 331.297422,370.672616 L331.419477,370.672616 L365.634227,370.257931 C370.68209,370.201184 374.901721,366.390437 375.490202,361.366187 L375.520715,361.07809 C375.568666,360.676499 375.590461,360.270543 375.590461,359.864587 L375.389942,317.915816 C375.376865,315.26619 374.317599,312.725691 372.447535,310.853057 L271.777969,210.045051 C293.037407,171.745517 286.381027,123.973679 255.457415,92.9726214 Z M168.135481,156.393402 C172.769227,159.453348 178.998413,158.17437 182.049799,153.538616 C185.789925,147.863963 188.928493,141.813912 191.417552,135.484493 C191.600634,135.659098 191.788077,135.820607 191.966802,136.003941 C199.377308,143.394083 200.780946,154.896167 195.362557,163.857751 C189.948528,172.814972 179.116109,176.905086 169.142437,173.757836 C159.168765,170.606222 152.638801,161.037886 153.331902,150.587796 C154.025003,140.137707 161.762444,131.520966 172.067409,129.722539 C170.206064,134.166228 167.93496,138.430946 165.284614,142.459949 C162.233229,147.100068 163.510452,153.33782 168.13984,156.393402 L168.135481,156.393402 Z M43.6912621,43.2888622 C61.8382867,25.121247 87.6835226,16.9366528 112.966431,21.3497862 C138.244979,25.7629194 159.800839,42.2237737 170.737876,65.4680211 C117.508636,74.0236498 81.1840714,124.034792 89.4576846,177.380883 C72.1214561,175.224516 56.0101407,167.310559 43.6956209,154.900533 C12.9725281,124.056617 12.9725281,74.1327778 43.6912621,43.2888622 Z M131.178843,217.426463 C110.111206,196.32549 102.918654,165.031968 112.656933,136.828948 C122.399571,108.625929 147.364264,88.4678206 176.953984,84.9146153 C178.409931,92.9595254 178.619169,101.183406 177.564262,109.289427 C157.050233,108.525533 138.89449,122.48081 134.330488,142.52106 C129.762129,162.565676 140.080171,183.024978 158.898501,191.240129 C177.716831,199.459644 199.708603,193.108399 211.268994,176.123729 C222.833745,159.13906 220.689057,136.318229 206.17318,121.782391 C203.457447,119.076019 200.392984,116.740682 197.058256,114.850586 C198.636258,105.020344 198.7278,95.0067651 197.33288,85.1503321 C223.853779,88.9916347 246.538651,106.216385 257.388507,130.748341 C268.238361,155.280297 265.731866,183.675382 250.753922,205.924382 C237.755021,225.222562 216.818156,237.689336 193.679937,239.919911 C170.541716,242.14612 147.621451,233.900414 131.187562,217.435194 L131.178843,217.426463 Z M355.455677,350.270061 L339.531803,350.462126 L336.864022,336.947725 C336.157843,333.368329 333.568524,330.452431 330.103023,329.326231 L309.929005,322.796016 L306.075542,305.854998 C305.277822,302.362905 302.692863,299.560499 299.284028,298.491046 L279.46746,292.27512 L276.647107,273.046781 C276.333251,270.907874 275.339371,268.926111 273.809319,267.398319 L246.246589,239.793322 C249.485417,237.274649 252.567317,234.555182 255.466133,231.652379 C257.048495,230.063476 258.55675,228.409098 260.025775,226.728527 L355.324903,322.15871 L355.455677,350.270061 Z"/>
    </g>
    <path fill="#63316D" d="M83.9848633,505.466797 L85.9272461,505.466797 C86.0678711,506.723633 87.2895508,507.549805 88.9594727,507.549805 C90.559082,507.549805 91.7104492,506.723633 91.7104492,505.589844 C91.7104492,504.605469 91.0161133,504.016602 89.3725586,503.612305 L87.7290039,503.216797 C85.3999023,502.654297 84.3188477,501.564453 84.3188477,499.797852 C84.3188477,497.609375 86.2260742,496.106445 88.9331055,496.106445 C91.6137695,496.106445 93.4506836,497.609375 93.512207,499.797852 L91.5961914,499.797852 C91.4819336,498.532227 90.4360352,497.767578 88.9067383,497.767578 C87.3774414,497.767578 86.331543,498.541016 86.331543,499.666016 C86.331543,500.5625 86.9995117,501.089844 88.6342773,501.494141 L90.0317383,501.836914 C92.6333008,502.452148 93.7143555,503.498047 93.7143555,505.352539 C93.7143555,507.725586 91.824707,509.210938 88.8188477,509.210938 C86.0063477,509.210938 84.1079102,507.760742 83.9848633,505.466797 Z M95.3579102,509 L95.3579102,499.455078 L97.2651367,499.455078 L97.2651367,509 L95.3579102,509 Z M96.315918,498.092773 C95.7006836,498.092773 95.199707,497.600586 95.199707,496.994141 C95.199707,496.370117 95.7006836,495.895508 96.315918,495.895508 C96.9311523,495.895508 97.4321289,496.370117 97.4321289,496.994141 C97.4321289,497.600586 96.9311523,498.092773 96.315918,498.092773 Z M99.2866211,509 L99.2866211,499.455078 L101.105957,499.455078 L101.105957,501.072266 L101.141113,501.072266 C101.580566,500 102.608887,499.349609 103.856934,499.349609 C105.184082,499.349609 106.14209,500.017578 106.528809,501.204102 L106.572754,501.204102 C107.07373,500.052734 108.19873,499.349609 109.561035,499.349609 C111.441895,499.349609 112.672363,500.588867 112.672363,502.496094 L112.672363,509 L110.773926,509 L110.773926,502.953125 C110.773926,501.705078 110.097168,500.984375 108.910645,500.984375 C107.741699,500.984375 106.915527,501.854492 106.915527,503.076172 L106.915527,509 L105.043457,509 L105.043457,502.794922 C105.043457,501.6875 104.331543,500.984375 103.215332,500.984375 C102.037598,500.984375 101.193848,501.898438 101.193848,503.146484 L101.193848,509 L99.2866211,509 Z M119.501465,499.358398 C121.936035,499.358398 123.535645,501.265625 123.535645,504.227539 C123.535645,507.180664 121.944824,509.09668 119.54541,509.09668 C118.174316,509.09668 117.093262,508.490234 116.521973,507.435547 L116.486816,507.435547 L116.486816,512.164062 L114.57959,512.164062 L114.57959,499.455078 L116.416504,499.455078 L116.416504,501.037109 L116.460449,501.037109 C116.996582,500.008789 118.174316,499.358398 119.501465,499.358398 Z M119.018066,507.479492 C120.564941,507.479492 121.584473,506.205078 121.584473,504.227539 C121.584473,502.258789 120.564941,500.975586 119.018066,500.975586 C117.506348,500.975586 116.478027,502.285156 116.469238,504.227539 C116.478027,506.178711 117.497559,507.479492 119.018066,507.479492 Z M125.135254,509 L125.135254,495.746094 L127.04248,495.746094 L127.04248,509 L125.135254,509 Z M133.04541,500.887695 C131.674316,500.887695 130.681152,501.889648 130.575684,503.357422 L135.418457,503.357422 C135.374512,501.87207 134.434082,500.887695 133.04541,500.887695 Z M135.409668,506.205078 L137.229004,506.205078 C136.956543,507.918945 135.277832,509.114258 133.133301,509.114258 C130.364746,509.114258 128.64209,507.250977 128.64209,504.262695 C128.64209,501.274414 130.382324,499.332031 133.054199,499.332031 C135.67334,499.332031 137.325684,501.151367 137.325684,504.042969 L137.325684,504.710938 L130.566895,504.710938 L130.566895,504.825195 C130.566895,506.477539 131.604004,507.567383 133.168457,507.567383 C134.275879,507.567383 135.145996,507.040039 135.409668,506.205078 Z M146.976074,500.887695 C145.60498,500.887695 144.611816,501.889648 144.506348,503.357422 L149.349121,503.357422 C149.305176,501.87207 148.364746,500.887695 146.976074,500.887695 Z M149.340332,506.205078 L151.159668,506.205078 C150.887207,507.918945 149.208496,509.114258 147.063965,509.114258 C144.29541,509.114258 142.572754,507.250977 142.572754,504.262695 C142.572754,501.274414 144.312988,499.332031 146.984863,499.332031 C149.604004,499.332031 151.256348,501.151367 151.256348,504.042969 L151.256348,504.710938 L144.497559,504.710938 L144.497559,504.825195 C144.497559,506.477539 145.534668,507.567383 147.099121,507.567383 C148.206543,507.567383 149.07666,507.040039 149.340332,506.205078 Z M152.785645,509 L152.785645,499.455078 L154.60498,499.455078 L154.60498,501.063477 L154.640137,501.063477 C155.220215,499.938477 156.178223,499.349609 157.654785,499.349609 C159.76416,499.349609 160.968262,500.685547 160.968262,502.882812 L160.968262,509 L159.061035,509 L159.061035,503.243164 C159.061035,501.792969 158.393066,500.984375 156.995605,500.984375 C155.554199,500.984375 154.692871,501.986328 154.692871,503.489258 L154.692871,509 L152.785645,509 Z M171.031738,502.71582 L169.212402,502.71582 C169.036621,501.705078 168.245605,500.94043 166.936035,500.94043 C165.397949,500.94043 164.378418,502.223633 164.378418,504.227539 C164.378418,506.28418 165.415527,507.514648 166.944824,507.514648 C168.184082,507.514648 169.001465,506.908203 169.22998,505.791992 L171.049316,505.791992 C170.82959,507.787109 169.22998,509.114258 166.936035,509.114258 C164.229004,509.114258 162.444824,507.250977 162.444824,504.227539 C162.444824,501.256836 164.220215,499.332031 166.918457,499.332031 C169.353027,499.332031 170.864746,500.878906 171.031738,502.71582 Z M172.446777,509 L172.446777,499.455078 L174.266113,499.455078 L174.266113,501.063477 L174.30127,501.063477 C174.600098,500 175.479004,499.358398 176.604004,499.358398 C176.885254,499.358398 177.122559,499.384766 177.271973,499.419922 L177.271973,501.204102 C177.11377,501.142578 176.779785,501.089844 176.401855,501.089844 C175.14502,501.089844 174.354004,501.959961 174.354004,503.304688 L174.354004,509 L172.446777,509 Z M179.45166,512.47168 C179.293457,512.47168 178.827637,512.445312 178.678223,512.418945 L178.678223,510.87207 C178.818848,510.907227 179.117676,510.916016 179.284668,510.916016 C180.189941,510.916016 180.690918,510.529297 181.016113,509.518555 L181.165527,509.026367 L177.702637,499.455078 L179.750488,499.455078 L182.202637,507.259766 L182.246582,507.259766 L184.69873,499.455078 L186.702637,499.455078 L183.125488,509.439453 C182.308105,511.733398 181.402832,512.47168 179.45166,512.47168 Z M192.784668,499.358398 C195.219238,499.358398 196.818848,501.265625 196.818848,504.227539 C196.818848,507.180664 195.228027,509.09668 192.828613,509.09668 C191.45752,509.09668 190.376465,508.490234 189.805176,507.435547 L189.77002,507.435547 L189.77002,512.164062 L187.862793,512.164062 L187.862793,499.455078 L189.699707,499.455078 L189.699707,501.037109 L189.743652,501.037109 C190.279785,500.008789 191.45752,499.358398 192.784668,499.358398 Z M192.30127,507.479492 C193.848145,507.479492 194.867676,506.205078 194.867676,504.227539 C194.867676,502.258789 193.848145,500.975586 192.30127,500.975586 C190.789551,500.975586 189.76123,502.285156 189.752441,504.227539 C189.76123,506.178711 190.780762,507.479492 192.30127,507.479492 Z M198.910645,497.310547 L200.809082,497.310547 L200.809082,499.455078 L202.637207,499.455078 L202.637207,500.958008 L200.809082,500.958008 L200.809082,506.292969 C200.809082,507.119141 201.178223,507.505859 201.978027,507.505859 C202.180176,507.505859 202.505371,507.479492 202.628418,507.461914 L202.628418,508.964844 C202.41748,509.017578 201.969238,509.061523 201.556152,509.061523 C199.648926,509.061523 198.910645,508.332031 198.910645,506.486328 L198.910645,500.958008 L197.592285,500.958008 L197.592285,499.455078 L198.910645,499.455078 L198.910645,497.310547 Z M204.315918,509 L204.315918,499.455078 L206.223145,499.455078 L206.223145,509 L204.315918,509 Z M205.273926,498.092773 C204.658691,498.092773 204.157715,497.600586 204.157715,496.994141 C204.157715,496.370117 204.658691,495.895508 205.273926,495.895508 C205.88916,495.895508 206.390137,496.370117 206.390137,496.994141 C206.390137,497.600586 205.88916,498.092773 205.273926,498.092773 Z M212.331543,509.114258 C209.571777,509.114258 207.813965,507.233398 207.813965,504.227539 C207.813965,501.230469 209.580566,499.332031 212.331543,499.332031 C215.08252,499.332031 216.840332,501.22168 216.840332,504.227539 C216.840332,507.233398 215.091309,509.114258 212.331543,509.114258 Z M212.331543,507.532227 C213.94873,507.532227 214.906738,506.310547 214.906738,504.227539 C214.906738,502.144531 213.94873,500.914062 212.331543,500.914062 C210.714355,500.914062 209.747559,502.15332 209.747559,504.227539 C209.747559,506.310547 210.714355,507.532227 212.331543,507.532227 Z M218.369629,509 L218.369629,499.455078 L220.188965,499.455078 L220.188965,501.063477 L220.224121,501.063477 C220.804199,499.938477 221.762207,499.349609 223.23877,499.349609 C225.348145,499.349609 226.552246,500.685547 226.552246,502.882812 L226.552246,509 L224.64502,509 L224.64502,503.243164 C224.64502,501.792969 223.977051,500.984375 222.57959,500.984375 C221.138184,500.984375 220.276855,501.986328 220.276855,503.489258 L220.276855,509 L218.369629,509 Z M234.269043,504.825195 L228.503418,504.825195 L228.503418,503.111328 L234.269043,503.111328 L234.269043,504.825195 Z M239.577637,507.576172 C240.992676,507.576172 242.064941,506.670898 242.064941,505.414062 L242.064941,504.666992 L239.744629,504.825195 C238.443848,504.904297 237.76709,505.387695 237.76709,506.231445 C237.76709,507.048828 238.479004,507.576172 239.577637,507.576172 Z M239.067871,509.09668 C237.160645,509.09668 235.842285,507.97168 235.842285,506.266602 C235.842285,504.59668 237.134277,503.629883 239.489746,503.480469 L242.064941,503.331055 L242.064941,502.592773 C242.064941,501.50293 241.335449,500.905273 240.061035,500.905273 C239.023926,500.905273 238.268066,501.441406 238.101074,502.267578 L236.316895,502.267578 C236.369629,500.580078 237.969238,499.332031 240.11377,499.332031 C242.442871,499.332031 243.945801,500.5625 243.945801,502.452148 L243.945801,509 L242.126465,509 L242.126465,507.40918 L242.08252,507.40918 C241.555176,508.446289 240.368652,509.09668 239.067871,509.09668 Z M246.433105,497.310547 L248.331543,497.310547 L248.331543,499.455078 L250.159668,499.455078 L250.159668,500.958008 L248.331543,500.958008 L248.331543,506.292969 C248.331543,507.119141 248.700684,507.505859 249.500488,507.505859 C249.702637,507.505859 250.027832,507.479492 250.150879,507.461914 L250.150879,508.964844 C249.939941,509.017578 249.491699,509.061523 249.078613,509.061523 C247.171387,509.061523 246.433105,508.332031 246.433105,506.486328 L246.433105,500.958008 L245.114746,500.958008 L245.114746,499.455078 L246.433105,499.455078 L246.433105,497.310547 Z M257.577637,504.825195 L251.812012,504.825195 L251.812012,503.111328 L257.577637,503.111328 L257.577637,504.825195 Z M259.572754,509 L259.572754,499.455078 L261.39209,499.455078 L261.39209,501.063477 L261.427246,501.063477 C261.726074,500 262.60498,499.358398 263.72998,499.358398 C264.01123,499.358398 264.248535,499.384766 264.397949,499.419922 L264.397949,501.204102 C264.239746,501.142578 263.905762,501.089844 263.527832,501.089844 C262.270996,501.089844 261.47998,501.959961 261.47998,503.304688 L261.47998,509 L259.572754,509 Z M269.592285,500.887695 C268.221191,500.887695 267.228027,501.889648 267.122559,503.357422 L271.965332,503.357422 C271.921387,501.87207 270.980957,500.887695 269.592285,500.887695 Z M271.956543,506.205078 L273.775879,506.205078 C273.503418,507.918945 271.824707,509.114258 269.680176,509.114258 C266.911621,509.114258 265.188965,507.250977 265.188965,504.262695 C265.188965,501.274414 266.929199,499.332031 269.601074,499.332031 C272.220215,499.332031 273.872559,501.151367 273.872559,504.042969 L273.872559,504.710938 L267.11377,504.710938 L267.11377,504.825195 C267.11377,506.477539 268.150879,507.567383 269.715332,507.567383 C270.822754,507.567383 271.692871,507.040039 271.956543,506.205078 Z M275.243652,502.170898 C275.243652,500.492188 276.746582,499.34082 278.943848,499.34082 C281.035645,499.34082 282.547363,500.518555 282.591309,502.179688 L280.79834,502.179688 C280.719238,501.335938 279.989746,500.808594 278.899902,500.808594 C277.818848,500.808594 277.098145,501.30957 277.098145,502.06543 C277.098145,502.645508 277.572754,503.041016 278.583496,503.287109 L280.165527,503.665039 C282.090332,504.130859 282.802246,504.825195 282.802246,506.231445 C282.802246,507.936523 281.185059,509.114258 278.873535,509.114258 C276.649902,509.114258 275.129395,507.962891 274.98877,506.240234 L276.869629,506.240234 C277.019043,507.154297 277.757324,507.655273 278.970215,507.655273 C280.156738,507.655273 280.903809,507.163086 280.903809,506.389648 C280.903809,505.783203 280.525879,505.466797 279.523926,505.211914 L277.818848,504.790039 C276.096191,504.368164 275.243652,503.489258 275.243652,502.170898 Z M284.92041,497.310547 L286.818848,497.310547 L286.818848,499.455078 L288.646973,499.455078 L288.646973,500.958008 L286.818848,500.958008 L286.818848,506.292969 C286.818848,507.119141 287.187988,507.505859 287.987793,507.505859 C288.189941,507.505859 288.515137,507.479492 288.638184,507.461914 L288.638184,508.964844 C288.427246,509.017578 287.979004,509.061523 287.565918,509.061523 C285.658691,509.061523 284.92041,508.332031 284.92041,506.486328 L284.92041,500.958008 L283.602051,500.958008 L283.602051,499.455078 L284.92041,499.455078 L284.92041,497.310547 Z M306.937012,499.455078 L304.309082,509 L302.340332,509 L300.310059,501.810547 L300.266113,501.810547 L298.253418,509 L296.293457,509 L293.656738,499.455078 L295.555176,499.455078 L297.330566,507.013672 L297.365723,507.013672 L299.387207,499.455078 L301.215332,499.455078 L303.245605,507.013672 L303.280762,507.013672 L305.056152,499.455078 L306.937012,499.455078 Z M308.211426,509 L308.211426,499.455078 L310.118652,499.455078 L310.118652,509 L308.211426,509 Z M309.169434,498.092773 C308.554199,498.092773 308.053223,497.600586 308.053223,496.994141 C308.053223,496.370117 308.554199,495.895508 309.169434,495.895508 C309.784668,495.895508 310.285645,496.370117 310.285645,496.994141 C310.285645,497.600586 309.784668,498.092773 309.169434,498.092773 Z M312.711426,497.310547 L314.609863,497.310547 L314.609863,499.455078 L316.437988,499.455078 L316.437988,500.958008 L314.609863,500.958008 L314.609863,506.292969 C314.609863,507.119141 314.979004,507.505859 315.778809,507.505859 C315.980957,507.505859 316.306152,507.479492 316.429199,507.461914 L316.429199,508.964844 C316.218262,509.017578 315.77002,509.061523 315.356934,509.061523 C313.449707,509.061523 312.711426,508.332031 312.711426,506.486328 L312.711426,500.958008 L311.393066,500.958008 L311.393066,499.455078 L312.711426,499.455078 L312.711426,497.310547 Z M318.125488,509 L318.125488,495.746094 L320.015137,495.746094 L320.015137,501.063477 L320.059082,501.063477 C320.630371,499.938477 321.614746,499.349609 323.07373,499.349609 C325.174316,499.349609 326.431152,500.74707 326.431152,502.900391 L326.431152,509 L324.523926,509 L324.523926,503.269531 C324.523926,501.845703 323.812012,500.984375 322.414551,500.984375 C320.929199,500.984375 320.032715,502.003906 320.032715,503.533203 L320.032715,509 L318.125488,509 Z M334.481934,503.577148 L338.410645,499.455078 L340.651855,499.455078 L336.661621,503.568359 L340.79248,509 L338.595215,509 L335.299316,504.728516 L334.473145,505.537109 L334.473145,509 L332.565918,509 L332.565918,495.746094 L334.473145,495.746094 L334.473145,503.577148 L334.481934,503.577148 Z M345.793457,500.887695 C344.422363,500.887695 343.429199,501.889648 343.32373,503.357422 L348.166504,503.357422 C348.122559,501.87207 347.182129,500.887695 345.793457,500.887695 Z M348.157715,506.205078 L349.977051,506.205078 C349.70459,507.918945 348.025879,509.114258 345.881348,509.114258 C343.112793,509.114258 341.390137,507.250977 341.390137,504.262695 C341.390137,501.274414 343.130371,499.332031 345.802246,499.332031 C348.421387,499.332031 350.07373,501.151367 350.07373,504.042969 L350.07373,504.710938 L343.314941,504.710938 L343.314941,504.825195 C343.314941,506.477539 344.352051,507.567383 345.916504,507.567383 C347.023926,507.567383 347.894043,507.040039 348.157715,506.205078 Z M352.561035,512.47168 C352.402832,512.47168 351.937012,512.445312 351.787598,512.418945 L351.787598,510.87207 C351.928223,510.907227 352.227051,510.916016 352.394043,510.916016 C353.299316,510.916016 353.800293,510.529297 354.125488,509.518555 L354.274902,509.026367 L350.812012,499.455078 L352.859863,499.455078 L355.312012,507.259766 L355.355957,507.259766 L357.808105,499.455078 L359.812012,499.455078 L356.234863,509.439453 C355.41748,511.733398 354.512207,512.47168 352.561035,512.47168 Z M365.120605,509 L365.120605,499.455078 L366.939941,499.455078 L366.939941,501.063477 L366.975098,501.063477 C367.273926,500 368.152832,499.358398 369.277832,499.358398 C369.559082,499.358398 369.796387,499.384766 369.945801,499.419922 L369.945801,501.204102 C369.787598,501.142578 369.453613,501.089844 369.075684,501.089844 C367.818848,501.089844 367.027832,501.959961 367.027832,503.304688 L367.027832,509 L365.120605,509 Z M375.254395,509.114258 C372.494629,509.114258 370.736816,507.233398 370.736816,504.227539 C370.736816,501.230469 372.503418,499.332031 375.254395,499.332031 C378.005371,499.332031 379.763184,501.22168 379.763184,504.227539 C379.763184,507.233398 378.01416,509.114258 375.254395,509.114258 Z M375.254395,507.532227 C376.871582,507.532227 377.82959,506.310547 377.82959,504.227539 C377.82959,502.144531 376.871582,500.914062 375.254395,500.914062 C373.637207,500.914062 372.67041,502.15332 372.67041,504.227539 C372.67041,506.310547 373.637207,507.532227 375.254395,507.532227 Z M381.86377,497.310547 L383.762207,497.310547 L383.762207,499.455078 L385.590332,499.455078 L385.590332,500.958008 L383.762207,500.958008 L383.762207,506.292969 C383.762207,507.119141 384.131348,507.505859 384.931152,507.505859 C385.133301,507.505859 385.458496,507.479492 385.581543,507.461914 L385.581543,508.964844 C385.370605,509.017578 384.922363,509.061523 384.509277,509.061523 C382.602051,509.061523 381.86377,508.332031 381.86377,506.486328 L381.86377,500.958008 L380.54541,500.958008 L380.54541,499.455078 L381.86377,499.455078 L381.86377,497.310547 Z M390.512207,507.576172 C391.927246,507.576172 392.999512,506.670898 392.999512,505.414062 L392.999512,504.666992 L390.679199,504.825195 C389.378418,504.904297 388.70166,505.387695 388.70166,506.231445 C388.70166,507.048828 389.413574,507.576172 390.512207,507.576172 Z M390.002441,509.09668 C388.095215,509.09668 386.776855,507.97168 386.776855,506.266602 C386.776855,504.59668 388.068848,503.629883 390.424316,503.480469 L392.999512,503.331055 L392.999512,502.592773 C392.999512,501.50293 392.27002,500.905273 390.995605,500.905273 C389.958496,500.905273 389.202637,501.441406 389.035645,502.267578 L387.251465,502.267578 C387.304199,500.580078 388.903809,499.332031 391.04834,499.332031 C393.377441,499.332031 394.880371,500.5625 394.880371,502.452148 L394.880371,509 L393.061035,509 L393.061035,507.40918 L393.01709,507.40918 C392.489746,508.446289 391.303223,509.09668 390.002441,509.09668 Z M397.367676,497.310547 L399.266113,497.310547 L399.266113,499.455078 L401.094238,499.455078 L401.094238,500.958008 L399.266113,500.958008 L399.266113,506.292969 C399.266113,507.119141 399.635254,507.505859 400.435059,507.505859 C400.637207,507.505859 400.962402,507.479492 401.085449,507.461914 L401.085449,508.964844 C400.874512,509.017578 400.42627,509.061523 400.013184,509.061523 C398.105957,509.061523 397.367676,508.332031 397.367676,506.486328 L397.367676,500.958008 L396.049316,500.958008 L396.049316,499.455078 L397.367676,499.455078 L397.367676,497.310547 Z M402.772949,509 L402.772949,499.455078 L404.680176,499.455078 L404.680176,509 L402.772949,509 Z M403.730957,498.092773 C403.115723,498.092773 402.614746,497.600586 402.614746,496.994141 C402.614746,496.370117 403.115723,495.895508 403.730957,495.895508 C404.346191,495.895508 404.847168,496.370117 404.847168,496.994141 C404.847168,497.600586 404.346191,498.092773 403.730957,498.092773 Z M410.788574,509.114258 C408.028809,509.114258 406.270996,507.233398 406.270996,504.227539 C406.270996,501.230469 408.037598,499.332031 410.788574,499.332031 C413.539551,499.332031 415.297363,501.22168 415.297363,504.227539 C415.297363,507.233398 413.54834,509.114258 410.788574,509.114258 Z M410.788574,507.532227 C412.405762,507.532227 413.36377,506.310547 413.36377,504.227539 C413.36377,502.144531 412.405762,500.914062 410.788574,500.914062 C409.171387,500.914062 408.20459,502.15332 408.20459,504.227539 C408.20459,506.310547 409.171387,507.532227 410.788574,507.532227 Z M416.82666,509 L416.82666,499.455078 L418.645996,499.455078 L418.645996,501.063477 L418.681152,501.063477 C419.26123,499.938477 420.219238,499.349609 421.695801,499.349609 C423.805176,499.349609 425.009277,500.685547 425.009277,502.882812 L425.009277,509 L423.102051,509 L423.102051,503.243164 C423.102051,501.792969 422.434082,500.984375 421.036621,500.984375 C419.595215,500.984375 418.733887,501.986328 418.733887,503.489258 L418.733887,509 L416.82666,509 Z M430.906738,502.170898 C430.906738,500.492188 432.409668,499.34082 434.606934,499.34082 C436.69873,499.34082 438.210449,500.518555 438.254395,502.179688 L436.461426,502.179688 C436.382324,501.335938 435.652832,500.808594 434.562988,500.808594 C433.481934,500.808594 432.76123,501.30957 432.76123,502.06543 C432.76123,502.645508 433.23584,503.041016 434.246582,503.287109 L435.828613,503.665039 C437.753418,504.130859 438.465332,504.825195 438.465332,506.231445 C438.465332,507.936523 436.848145,509.114258 434.536621,509.114258 C432.312988,509.114258 430.79248,507.962891 430.651855,506.240234 L432.532715,506.240234 C432.682129,507.154297 433.42041,507.655273 434.633301,507.655273 C435.819824,507.655273 436.566895,507.163086 436.566895,506.389648 C436.566895,505.783203 436.188965,505.466797 435.187012,505.211914 L433.481934,504.790039 C431.759277,504.368164 430.906738,503.489258 430.906738,502.170898 Z M448.150879,499.455078 L448.150879,509 L446.331543,509 L446.331543,507.365234 L446.296387,507.365234 C445.742676,508.499023 444.775879,509.105469 443.316895,509.105469 C441.233887,509.105469 439.968262,507.760742 439.968262,505.572266 L439.968262,499.455078 L441.875488,499.455078 L441.875488,505.211914 C441.875488,506.679688 442.569824,507.461914 443.949707,507.461914 C445.373535,507.461914 446.243652,506.46875 446.243652,504.957031 L446.243652,499.455078 L448.150879,499.455078 Z M455.023926,499.358398 C457.458496,499.358398 459.058105,501.265625 459.058105,504.227539 C459.058105,507.180664 457.467285,509.09668 455.067871,509.09668 C453.696777,509.09668 452.615723,508.490234 452.044434,507.435547 L452.009277,507.435547 L452.009277,512.164062 L450.102051,512.164062 L450.102051,499.455078 L451.938965,499.455078 L451.938965,501.037109 L451.98291,501.037109 C452.519043,500.008789 453.696777,499.358398 455.023926,499.358398 Z M454.540527,507.479492 C456.087402,507.479492 457.106934,506.205078 457.106934,504.227539 C457.106934,502.258789 456.087402,500.975586 454.540527,500.975586 C453.028809,500.975586 452.000488,502.285156 451.991699,504.227539 C452.000488,506.178711 453.02002,507.479492 454.540527,507.479492 Z M465.500488,499.358398 C467.935059,499.358398 469.534668,501.265625 469.534668,504.227539 C469.534668,507.180664 467.943848,509.09668 465.544434,509.09668 C464.17334,509.09668 463.092285,508.490234 462.520996,507.435547 L462.48584,507.435547 L462.48584,512.164062 L460.578613,512.164062 L460.578613,499.455078 L462.415527,499.455078 L462.415527,501.037109 L462.459473,501.037109 C462.995605,500.008789 464.17334,499.358398 465.500488,499.358398 Z M465.01709,507.479492 C466.563965,507.479492 467.583496,506.205078 467.583496,504.227539 C467.583496,502.258789 466.563965,500.975586 465.01709,500.975586 C463.505371,500.975586 462.477051,502.285156 462.468262,504.227539 C462.477051,506.178711 463.496582,507.479492 465.01709,507.479492 Z M475.14209,509.114258 C472.382324,509.114258 470.624512,507.233398 470.624512,504.227539 C470.624512,501.230469 472.391113,499.332031 475.14209,499.332031 C477.893066,499.332031 479.650879,501.22168 479.650879,504.227539 C479.650879,507.233398 477.901855,509.114258 475.14209,509.114258 Z M475.14209,507.532227 C476.759277,507.532227 477.717285,506.310547 477.717285,504.227539 C477.717285,502.144531 476.759277,500.914062 475.14209,500.914062 C473.524902,500.914062 472.558105,502.15332 472.558105,504.227539 C472.558105,506.310547 473.524902,507.532227 475.14209,507.532227 Z M481.180176,509 L481.180176,499.455078 L482.999512,499.455078 L482.999512,501.063477 L483.034668,501.063477 C483.333496,500 484.212402,499.358398 485.337402,499.358398 C485.618652,499.358398 485.855957,499.384766 486.005371,499.419922 L486.005371,501.204102 C485.847168,501.142578 485.513184,501.089844 485.135254,501.089844 C483.878418,501.089844 483.087402,501.959961 483.087402,503.304688 L483.087402,509 L481.180176,509 Z M487.79834,497.310547 L489.696777,497.310547 L489.696777,499.455078 L491.524902,499.455078 L491.524902,500.958008 L489.696777,500.958008 L489.696777,506.292969 C489.696777,507.119141 490.065918,507.505859 490.865723,507.505859 C491.067871,507.505859 491.393066,507.479492 491.516113,507.461914 L491.516113,508.964844 C491.305176,509.017578 490.856934,509.061523 490.443848,509.061523 C488.536621,509.061523 487.79834,508.332031 487.79834,506.486328 L487.79834,500.958008 L486.47998,500.958008 L486.47998,499.455078 L487.79834,499.455078 L487.79834,497.310547 Z M497.853027,509 L497.853027,500.958008 L496.534668,500.958008 L496.534668,499.455078 L497.853027,499.455078 L497.853027,498.576172 C497.853027,496.791992 498.661621,496.009766 500.595215,496.009766 C500.937988,496.009766 501.254395,496.044922 501.562012,496.097656 L501.562012,497.547852 C501.368652,497.503906 501.10498,497.477539 500.850098,497.477539 C500.067871,497.477539 499.742676,497.820312 499.733887,498.637695 L499.733887,499.455078 L501.570801,499.455078 L501.570801,500.958008 L499.751465,500.958008 L499.751465,509 L497.853027,509 Z M507.230957,509.114258 C504.471191,509.114258 502.713379,507.233398 502.713379,504.227539 C502.713379,501.230469 504.47998,499.332031 507.230957,499.332031 C509.981934,499.332031 511.739746,501.22168 511.739746,504.227539 C511.739746,507.233398 509.990723,509.114258 507.230957,509.114258 Z M507.230957,507.532227 C508.848145,507.532227 509.806152,506.310547 509.806152,504.227539 C509.806152,502.144531 508.848145,500.914062 507.230957,500.914062 C505.61377,500.914062 504.646973,502.15332 504.646973,504.227539 C504.646973,506.310547 505.61377,507.532227 507.230957,507.532227 Z M513.269043,509 L513.269043,499.455078 L515.088379,499.455078 L515.088379,501.063477 L515.123535,501.063477 C515.422363,500 516.30127,499.358398 517.42627,499.358398 C517.70752,499.358398 517.944824,499.384766 518.094238,499.419922 L518.094238,501.204102 C517.936035,501.142578 517.602051,501.089844 517.224121,501.089844 C515.967285,501.089844 515.17627,501.959961 515.17627,503.304688 L515.17627,509 L513.269043,509 Z M525.626465,497.969727 L525.626465,502.53125 L528.456543,502.53125 C529.977051,502.53125 530.855957,501.696289 530.855957,500.246094 C530.855957,498.831055 529.924316,497.969727 528.403809,497.969727 L525.626465,497.969727 Z M525.626465,504.12207 L525.626465,509 L523.657715,509 L523.657715,496.317383 L528.641113,496.317383 C531.251465,496.317383 532.877441,497.829102 532.877441,500.193359 C532.877441,501.907227 531.963379,503.295898 530.416504,503.814453 L533.26416,509 L530.987793,509 L528.403809,504.12207 L525.626465,504.12207 Z M542.721191,499.455078 L542.721191,509 L540.901855,509 L540.901855,507.365234 L540.866699,507.365234 C540.312988,508.499023 539.346191,509.105469 537.887207,509.105469 C535.804199,509.105469 534.538574,507.760742 534.538574,505.572266 L534.538574,499.455078 L536.445801,499.455078 L536.445801,505.211914 C536.445801,506.679688 537.140137,507.461914 538.52002,507.461914 C539.943848,507.461914 540.813965,506.46875 540.813965,504.957031 L540.813965,499.455078 L542.721191,499.455078 Z M549.699707,509.09668 C548.311035,509.09668 547.221191,508.481445 546.632324,507.382812 L546.588379,507.382812 L546.588379,509 L544.751465,509 L544.751465,495.746094 L546.658691,495.746094 L546.658691,501.037109 L546.693848,501.037109 C547.273926,499.964844 548.36377,499.358398 549.717285,499.358398 C552.125488,499.358398 553.70752,501.265625 553.70752,504.227539 C553.70752,507.189453 552.125488,509.09668 549.699707,509.09668 Z M549.216309,500.975586 C547.678223,500.975586 546.649902,502.293945 546.649902,504.227539 C546.649902,506.169922 547.678223,507.479492 549.216309,507.479492 C550.754395,507.479492 551.756348,506.205078 551.756348,504.227539 C551.756348,502.25 550.754395,500.975586 549.216309,500.975586 Z M556.186035,512.47168 C556.027832,512.47168 555.562012,512.445312 555.412598,512.418945 L555.412598,510.87207 C555.553223,510.907227 555.852051,510.916016 556.019043,510.916016 C556.924316,510.916016 557.425293,510.529297 557.750488,509.518555 L557.899902,509.026367 L554.437012,499.455078 L556.484863,499.455078 L558.937012,507.259766 L558.980957,507.259766 L561.433105,499.455078 L563.437012,499.455078 L559.859863,509.439453 C559.04248,511.733398 558.137207,512.47168 556.186035,512.47168 Z"/>
    <path fill="#E48E66" d="M19.4,465.3 C8.9,465.3 1.5,459.3 1.5,448.5 L1.5,448.3 C1.5,437.4 9.6,431.3 22.3,431.3 C26.9,431.3 32.8,432.3 35.2,433.3 L35.2,432.4 C35.2,427.4 32.1,424.5 25.1,424.5 C19.5,424.5 14.8,425.7 10,427.6 L6,412.5 C12.3,410.1 19.5,408.5 29,408.5 C40.1,408.5 47.3,410.8 52.1,415.6 C56.2,419.7 57.8,425 57.8,432.9 L57.8,464 L35.1,464 L35.1,458.5 C31.3,462.6 26.2,465.3 19.4,465.3 Z M28.4,452.2 C32.4,452.2 35.4,449 35.4,443.8 L35.4,441.5 C34.1,441 32.1,440.6 30.2,440.6 C25.7,440.6 23.2,443.3 23.2,446.7 L23.2,446.9 C23.2,450.1 25.5,452.2 28.4,452.2 Z M89,465.2 C75.6,465.2 68.4,459 68.4,445.7 L68.4,426.9 L62,426.9 L62,409.4 L68.4,409.4 L68.4,395.7 L91.1,395.7 L91.1,409.4 L103.7,409.4 L103.7,426.9 L91.1,426.9 L91.1,440.7 C91.1,444.8 93,446.3 96.6,446.3 C98.7,446.3 101.1,445.7 103.5,444.6 L103.5,462.1 C99.9,464 94.5,465.2 89,465.2 Z M133.6,465.2 C120.2,465.2 113,459 113,445.7 L113,426.9 L106.6,426.9 L106.6,409.4 L113,409.4 L113,395.7 L135.7,395.7 L135.7,409.4 L148.3,409.4 L148.3,426.9 L135.7,426.9 L135.7,440.7 C135.7,444.8 137.6,446.3 141.2,446.3 C143.3,446.3 145.7,445.7 148.1,444.6 L148.1,462.1 C144.5,464 139.1,465.2 133.6,465.2 Z M153.4,464 L153.4,409.4 L176.1,409.4 L176.1,420.4 C179.2,413 184.2,408.2 193.2,408.6 L193.2,432.7 L190.8,432.7 C181.2,432.7 176.1,438 176.1,450.1 L176.1,464 L153.4,464 Z M193.5,480 L193.5,468.4 L253.9,468.4 L253.9,480 L193.5,480 Z M257.1,464 L257.1,391 L279.8,391 L279.8,426.2 L291.5,409.4 L316.2,409.4 L299.1,431.6 L316.5,464 L292.2,464 L284.3,449 L279.8,454.8 L279.8,464 L257.1,464 Z M346.8,465.3 C328.9,465.3 316.8,454 316.8,437 L316.8,436.8 C316.8,420.5 328.5,408.1 344.9,408.1 C364.3,408.1 373.3,421.6 373.3,438.2 C373.3,439.4 373.3,440.8 373.2,442 L338.1,442 C339.7,446.8 343.5,449.3 348.4,449.3 C352.5,449.3 355.9,447.4 359.5,443.7 L371.7,453.4 C366.3,460.4 358.6,465.3 346.8,465.3 Z M337.8,432 L352.6,432 C352.1,426.8 349,423.8 345,423.8 C341.2,423.8 338.5,427 337.8,432 Z M397.4,480.3 C389.5,480.3 382.4,478 376.3,474.6 L382.9,459.1 C387,461.4 390.8,462.7 392.9,462.7 C394.2,462.7 395.4,462.5 396.6,461.9 L375.2,409.4 L398.7,409.4 L408.2,438.2 L416.9,409.4 L440,409.4 L421.1,460.2 C415.8,474.5 410,480.3 397.4,480.3 Z M443.5,464 L443.5,409.4 L466.2,409.4 L466.2,420.4 C469.3,413 474.3,408.2 483.3,408.6 L483.3,432.7 L480.9,432.7 C471.3,432.7 466.2,438 466.2,450.1 L466.2,464 L443.5,464 Z M487,405.5 L487,391 L510.5,391 L510.5,405.5 L487,405.5 Z M487.4,464 L487.4,409.4 L510.1,409.4 L510.1,464 L487.4,464 Z M517.1,464 L517.1,409.4 L539.8,409.4 L539.8,417 C543.3,412.5 548.8,408.1 556.5,408.1 C568,408.1 575.2,415.7 575.2,428 L575.2,464 L552.5,464 L552.5,435.3 C552.5,430.6 549.7,427.9 546.3,427.9 C542.9,427.9 539.8,430.6 539.8,435.3 L539.8,464 L517.1,464 Z M610.7,480.2 C598.6,480.2 589.2,477.8 580.4,473.4 L587.4,459.7 C593.5,462.9 599.6,464.9 607.1,464.9 C615.6,464.9 620.1,460.5 620.1,452.9 L620.1,451.3 C617,454.8 611.9,458.8 604.3,458.8 C590.2,458.8 580,448.8 580,433.7 L580,433.5 C580,418.2 590.4,408.1 603,408.1 C611,408.1 615.7,411.1 619.7,415.2 L619.7,409.4 L642.4,409.4 L642.4,450.2 C642.4,460.3 640.3,467.2 635.3,472.2 C630.4,477.1 622.9,480.2 610.7,480.2 Z M611.1,442.2 C616.7,442.2 620.2,438.4 620.2,433.6 L620.2,433.4 C620.2,428.7 616.6,424.9 611.1,424.9 C605.5,424.9 602,428.8 602,433.6 L602,433.8 C602,438.5 605.6,442.2 611.1,442.2 Z"/>
  </g>
</svg>
